<?xml version="1.0" encoding="utf-8"?>
<!-- Generator: Adobe Illustrator 21.1.0, SVG Export Plug-In . SVG Version: 6.00 Build 0)  -->
<svg version="1.0" id="Warstwa_1" xmlns="http://www.w3.org/2000/svg" xmlns:xlink="http://www.w3.org/1999/xlink" x="0px" y="0px"
	 viewBox="0 0 792 792" enable-background="new 0 0 792 792" xml:space="preserve">
<g>
	<path d="M624.5,658.3c6.5,18.1,15,59.4-9.2,86.6c-4.3,4.9-18,7.3-26.1,7.3c-5.6,0-9.2-1.1-11.1-3.3c-5.4,6.2-17.6,7.1-25,7.1
		c-2.2,0-19.6-0.2-25.9-6.2c-1.8,2.2-4.4,2.2-5.4,2.2c-0.7,0-4.2-0.2-4.2-0.2c-8.7-0.5-19.8-1.3-27.9-5.4
		c-3.8-2-15.7-10.5-15.6-34.5c-2.4-0.2-13,0.2-32.8,0c-1.1,1.8-5.5,9.5-7,11.4c-5.3,7.4-16,20.7-29.9,25.2c-0.7,0.2-1.3,0.4-2.2,0.4
		c-4.4,0-12.2-3.6-13.1-4c-9.6-4.9-24.5-15.1-33-33c-22.8-0.2-36.5-0.2-40,0c-1.8,11.1-7.8,23.6-14.3,30.3c-4.5,4.7-18,7.3-26.1,7.3
		c-5.6,0-9.2-1.1-11.1-3.3c-5.4,6.2-17.6,7.1-25,7.1c-2.2,0-19.6-0.2-25.9-6.2c-1.8,2.2-4.4,2.2-5.4,2.2c-0.7,0-4.2-0.2-4.2-0.2
		c-8.7-0.5-19.8-1.2-27.9-5.4c-2.7-1.4-10.2-9.3-14.5-25c-4.3-15.6-3.8-35.4,12-63.5c6.2-10.9,18.1-21.9,61.1-21.9h0.4
		c13.1,0,23.9,0.7,33,2c10.5-18.3,20.5-35.9,23.2-43.5c0.7-7.6,1.5-11.8,4-14c0,0,0.2-0.2,0.4-0.4c2.4-2.4,4.5-4.2,7.3-4.2
		c1.5,0,4.7-0.4,6-2.2c-22.8-11.4-57.3-25.9-63.8-29.6c-6.5-3.6-80.9-37.5-41.9-97.2c-1.6-8.9-14.9-94.7-14.7-120.2
		c-77.1-55.9-51.9-253-49.7-260.6c4.2-14.5,13.4-10.5,21.6-0.7c7.3,8.7,27,33.5,50.8,54.8C252.6,63.3,344.7,34.4,396,36.1
		c51.3-1.5,143.4,27.2,184.8,81.4c23.8-21.2,43.5-46.1,50.8-54.8c8.3-9.8,17.4-13.6,21.6,0.7c2.2,7.6,27.4,204.7-49.7,260.6
		c0.2,25.6-12.9,111.3-14.7,120.2c39,59.7-35.4,93.6-41.9,97.2c-6.3,3.4-41,19.6-63.3,30.6c2,2.2,8.5,1.1,10,1.1
		c2.7,0,4.9,1.8,7.3,4.2c0.2,0.2,0.2,0.4,0.4,0.4c2.4,2,4.4,8.7,3.8,13.2c8.3,14.5,17.4,31,25.8,45.9c5.3-0.4,11.2-0.7,17.8-0.7h0.4
		C604,636.1,621.4,647.6,624.5,658.3z"/>
	<path fill="#F2BC52" d="M594.4,274.8c0.1-6.4-7.4-15.1-16.6-25.7c-3.4-4-7-8-10.4-12.4c4.9-10.4,16.3-49,17.4-53.5
		c9.9-15.8,19.6-33.9,29.9-53.1c4.8-8.9,9.7-18.1,14.7-27.3C640.7,126.6,658.2,220,594.4,274.8z M178.2,739.7
		c7.8,4,18.9,4.5,27.6,5.1c5.8,0.4,5.8,0.2,4.2-6.9c-1.8-7.6-8.1-64,15.1-96.1c-10.1,30.8-17.1,79.3-7.8,101.2
		c3.1,7.3,39.6,9.8,44.1-1.5c9.6-23.4,6.8-81,2.7-98.1c13.8,13.9,10.4,81,4.3,97.3c-2.7,7.6,25.5,4.1,30.7-1.4
		c18.5-19.2,16.5-57.7,8.2-81.1c-2.4-6.5-12.9-20.9-71.8-20.9c-41,0-51.9,10.2-57.5,19.9C151.4,704.3,171.9,736.6,178.2,739.7z
		 M491,660.1c-26.5,47-6,79.2,0.4,82.5c7.8,4,18.9,4.5,27.6,5.1c5.8,0.4,4.7-0.3,3.1-7.4c-1.8-7.6-10.9-64.5,16.1-95.6
		c-13.4,29.9-18.5,79.1-9.2,101c3.1,7.3,42.6,9.8,47.1-1.5c9.6-23.4,7.3-79.8,1.1-97.9c17,15.9,11.2,80.6,5.1,96.9
		c-2.7,7.6,24.7,4.5,29.9-1c18.5-19.2,16.5-57.7,8.2-81.1c-2.4-6.5-12.9-20.9-71.8-20.9C507.7,640.3,496.6,650.3,491,660.1z
		 M443,593.7c-13.1,5.6-26.1,12-44.6,12c-18.5,0-31.6-6.3-44.6-12c-23-10-37.7-19.6-37.7-19.6l-5.6,5.3c0,0,21.6,12.7,38.1,19.4
		c15.1,6.2,31.6,11.4,50.2,12c18,0.5,38.4-7.4,49.7-12c16.5-6.7,37.4-18.9,37.4-18.9l-6.9-3.8C478.9,576.1,466,583.9,443,593.7z
		 M225.4,236.7c-4.9-10.4-19.3-54.3-20.6-59.3c-15.1-24-27.6-45.8-42.5-72.8C152.6,125,126.5,218,198.1,275
		c-0.3-8.2,11.5-21.1,23.9-34.7C223.1,239.1,224.3,237.9,225.4,236.7z M321.9,571.7c-7.5-3.9-21.5-10.7-35.1-17.3
		c-15.4-7.5-29.9-14.5-35.5-17.5c-29.3-15.9-47-33.4-51.2-50.6c-4.2-16.6,6.2-43.4,25.4-65c0.6-0.6,1.3-1.5,0.8-2.2
		c-0.5-0.8-1.3-0.5-2.9,0c-8.6-25.5-6.5-55.4-5-60.2c0.8-2.2,2.1-5.5,4.1-8.6c0.5-0.8,1.3-2.2,0.4-2.9c-0.9-0.7-2,0.4-2.5,0.9
		c-1.8,1.6-8.4,11.9-12.1,18.2c-1.5-17,8.5-32.5,11.9-37.7c1.4-2.1,1.6-2.4,1.3-3l-0.4-0.8l-0.8,0.4c-0.9,0.5-2,1.2-3.4,2.1
		c-2.4,1.6-5.5,3.6-8,4.6c5.4-22.1,20.2-40.7,22.4-42.5c43.2-24,102.3-29.4,106.4-29.8c27.6,11.8,34.4,32.6,35.9,39.3
		c-0.7-0.5-1.6-1.2-2.4-1.9c-5-4-12.6-10-17.2-11.5l-3.1-1l2.2,2.5c9.5,10.9,21.1,31,24,37.5c-2.7-1.9-6.6-4.2-9.7-5.7l-5.7-2.8
		l4.6,4.3c2.4,2.2,12,18.3,13.8,28.7c-0.5-0.6-1-1.2-1.5-1.8c-3.1-3.7-7-8.2-8.5-9.4l-2.7-2l1.3,3.1c1.9,4.7,9.5,36.2,5.7,64.9
		c-7.2,1.3-13.7,3-19.6,5.1c4.7-9.9,4.3-23,4.1-29.6l0-1.3c-0.9-24.2-10.1-42.9-26.6-54.3l-0.4-0.3c-9.2-6.1-19.3-9.2-30.1-9.2
		c-17.6,0-33,7.4-40.9,13.8c-17.8,16.3-22.6,31-19,58.1c0.4,3.2,4.6,31.7,21.6,37.4c10.6,3.5,21.7,5.3,33.1,5.3
		c13.7,0,24.5-2.7,30.3-4.2c0.2-0.1,0.5-0.1,0.7-0.2c-14.3,12.1-22,28.6-22.9,32.4c-0.1,0.2-0.1,0.4-0.1,0.4h0c0,0.1,0,0.2,0,0.3
		l0.2,0.6h1.6v-0.7l0-0.1c32.3-50,87.6-47.9,89.9-47.8l1.3,0.1c49.1,2,75.1,27,88.2,47.6c0.1,0.3,0.3,0.6,0.4,0.7l0.3,0.3l1.1,0
		l0.2-0.6c0.5-1.4-7.3-19.8-22.8-32.9c5.9,1.5,16.6,4.2,30.8,4.2c11.4,0,22.5-1.8,33.1-5.3c16.6-5.5,21-32.1,21.6-37.4
		c3.6-27-1.2-41.6-19-58.1c-5.9-5.1-21.2-13.8-40.9-13.8c-10.9,0-21.1,3.1-30.1,9.3c-9.5,6.2-25.7,21.5-27,54.5
		c-0.3,5.6-1.1,19.9,4.1,30.9c-5.9-2.1-12.4-3.8-19.6-5.1c-3.9-28.6,3.7-60.2,5.7-64.9l1.4-3.3l-2.8,2.3c-1.4,1.1-5,5.4-8.2,9.1
		c-0.6,0.7-1.2,1.4-1.7,2c1.9-10.6,11.4-26.5,13.7-28.7l5-4.6l-6,3.2c-2.9,1.5-6.9,4-9.6,5.8c2.9-6.4,14.5-26.4,24-37.6l2.1-2.5
		l-3.1,1c-4.6,1.5-12.2,7.5-17.2,11.5c-0.8,0.7-1.7,1.3-2.4,1.9c1.6-7,8.5-27.5,35.9-39.3c12,0.7,67,7.9,106.3,29.7
		c2.3,1.8,16.9,20.3,22.5,42.6c-2.7-1.1-6.2-3.3-8.6-4.9c-1.1-0.7-2.1-1.4-2.7-1.7l-0.8-0.5l-0.4,0.9c-0.3,0.6-0.1,0.9,1.3,3
		c3.4,5.3,13.4,20.8,11.9,37.7c-3.8-6.4-10.4-16.5-12-18.1c-0.5-0.5-1.6-1.6-2.5-0.9c-0.9,0.7-0.1,2.1,0.4,2.9
		c2.1,3.6,3.6,7.2,4.1,8.5c1.6,4.7,3.8,34.3-5,60.2c-1.6-0.5-2.4-0.7-2.9,0c-0.5,0.8,0.3,1.6,0.8,2.2c19.1,21.6,29.6,48.4,25.4,65
		c-4.7,17.6-21.9,34.6-51.2,50.6c-4,2.1-12.2,6.2-21.7,11c-19.7,9.9-44.3,22.2-53.8,27.9l-2.4,1.5c-3,1.8-6.7,4.1-11.2,6.7
		c-8.3,4.7-17.7,8.8-27,11.7l-2,0.6c-6.3,2-14.8,4.8-23.8,4.8c-26.9,0-53.3-15.7-65.9-23.2c-2.1-1.4-4.2-2.6-6.3-3.8
		c-0.2-0.1-0.3-0.2-0.4-0.3l-0.2-0.1C325.1,573,324,572.4,321.9,571.7z M523.1,286c-15.2-21.4-34.1-18.7-41.3-15.6
		c-5.8,2.4-5.3,10-0.9,9.8c23-0.5,31.2,9.2,39,16.9C523.3,300.3,529.1,294.3,523.1,286z M272.5,296.8c7.6-7.6,16-17.4,39-16.9
		c4.5,0.2,5.1-7.3-0.9-9.8c-7.3-3.1-25.9-5.8-41.3,15.6C263.3,294.3,269.1,300.3,272.5,296.8z M469.4,492.5c-2,0-3.4,1.5-3.4,3.4
		c0,2,1.5,3.4,3.4,3.4s3.4-1.5,3.4-3.4C472.9,494.1,471.3,492.5,469.4,492.5z M464.5,472.6c0,2,1.5,3.4,3.4,3.4c2,0,3.4-1.5,3.4-3.4
		c0-2-1.5-3.4-3.4-3.4C466,469.1,464.5,470.6,464.5,472.6z M449.9,485.1c-2,0-3.4,1.5-3.4,3.4c0,2,1.5,3.4,3.4,3.4s3.4-1.5,3.4-3.4
		C453.3,486.7,451.7,485.1,449.9,485.1z M339.2,488.5c0,2,1.5,3.4,3.4,3.4c2,0,3.4-1.5,3.4-3.4c0-2-1.5-3.4-3.4-3.4
		C340.8,485.1,339.2,486.7,339.2,488.5z M321.1,472.6c0,2,1.5,3.4,3.4,3.4s3.4-1.5,3.4-3.4c0-2-1.5-3.4-3.4-3.4
		C322.7,469.1,321.1,470.7,321.1,472.6z M319.7,496c0,2,1.5,3.4,3.4,3.4c2,0,3.4-1.5,3.4-3.4c0-2-1.5-3.4-3.4-3.4
		C321.1,492.5,319.7,494,319.7,496z M327.8,534.4c16.9,12.1,37.3,17.7,68.4,18.5c30.7-0.8,51.2-6.3,68.3-18.5
		c10.9-7.8,19-17.6,24.9-24.8c4-4.8,7.1-8.6,9.1-9.4c2.8-0.9,4.1-0.9,8.5-0.7l1.5,0.1c5,0.2,6.9-1.7,7.6-2.9c0.8-1.3,0.8-2.9,0-4.3
		c-1.2-2.2-4.1-3.5-7.6-3.5c-7.5,0-12.3,5.6-14.9,8.6c-0.3,0.4-0.6,0.7-0.8,0.9c-0.3,0.2-0.8,0.9-2.2,2.4
		c-4.5,5.2-14.9,17.3-26.8,26.9c-14.3,11.7-36.2,17.9-64.9,18.4l1.5-50.3c11.1-3.1,36.8-21.5,48.8-47.8c2.8-6,2.7-11.4-0.2-16
		c-10.3-16-52.6-16.5-53-16.5c-0.4,0-42.6,0.4-52.9,16.5c-2.9,4.6-3,10-0.3,16c11.9,26.3,37.6,44.8,48.8,47.8l0.6,50.3
		c-28.3-0.4-49.2-6.5-64-18.4c-12.9-10.4-24.4-23.8-28.7-29l-0.2-0.3c-0.3-0.3-0.7-0.8-1.2-1.3c-2.7-3.1-7.3-8.2-14.5-8.2
		c-3.5,0-6.3,1.3-7.5,3.5c-0.8,1.4-0.8,2.9,0,4.2c1.2,2,3.9,3.1,7.6,3h0c1,0,1.9-0.1,2.7-0.1c3.7-0.2,4.9-0.2,7.3,0.8
		c2,0.8,5.2,4.6,9.3,9.5C309,516.9,317.1,526.6,327.8,534.4z"/>
	<path fill="#022EBA" d="M414.1,641.8c2.7-3.6,1.3-25.6-0.7-28.2c33.9-5.6,71.4-26.1,80.5-35c0.9-0.9,3.4,1.9,4.2,2.6
		c2.3,2.1,2.5,14.1,2.9,21.2c0.4,4.5-1.8,8.3-4.7,10.9C484.5,623.1,455.1,640.8,414.1,641.8z M499.4,616.9
		c-4.7,4-32.8,27.8-71.1,30.3c0,0,0,8.8,3.1,15.2c2.2,4.5,5.1,8.9,14.9,10.7l5.2,1c0,0-3.6,23.6-8.3,32.1l30.5-0.1
		c-0.2-20.7,4.6-33.5,12.9-48.2c4.9-8.5,14.1-17.1,38.2-20.3c-6.2-11.1-12.7-22.8-19-34.1C505.7,608.6,503.4,613.5,499.4,616.9z
		 M585.7,270.5c-2.2-3.4-7.4-9.1-24.3-30.2c-54.8-22.3-125.1-28.4-165.1-28.4c-40.1,0-110.4,4.8-165.4,27.1
		c-12.8,13.8-16.9,22.2-26,32.8c-1.5,3.8-1.8,9,6.7,17c2.2,1.8,3.4,3.3,7.6,0.7c7.6-4.5,55.7-40.1,176.8-40.1s169,35.5,176.8,40.1
		c4.4,2.5,5.6,1.1,7.6-0.7C590.6,279.6,588,273.9,585.7,270.5z M368.4,649.6c0.1-1.3,0.1-1.6,0.1-1.6c-44.8-8.4-65.7-25.7-70.6-29.9
		c-3.4-2.9-5.8-8-6.4-12.4c-4.4,8.3-10.3,18.9-16.9,30.3c24.7,4.4,33.7,13.1,36.5,20.7c4.4,12,8.7,33,6.3,49.6l36.4-0.1
		c-2.9-8.1-7.2-27.9-7.2-27.9l3.9-1.5C362.3,672.6,367.6,664.1,368.4,649.6z M303.4,578.6c-0.9-0.9-3.7,1.9-4.4,2.6
		c-2.4,2-2.5,14.1-2.9,21.2c-0.4,4.5,1.8,8.3,4.7,10.9c11.6,9.8,41,27.4,82.1,28.5c-2.5-3.6-1.2-25.7,0.8-28.5
		C349.9,607.7,312.4,587.4,303.4,578.6z M435.9,89.4c-0.6,21-6.9,55.7-39.9,72.6c-24.7-12.7-38.2-37.1-40.1-72.6
		c4.4-1.7,8.8-5.1,10-13.5c10.1-4.6,23.7-5.7,27.7-5.9c0.1,0,0.2,0,0.2,0c1.1-0.1,1.7-0.1,1.9-0.1c0.3,0,0.9,0,2,0.1
		c0,0,0.1,0,0.1,0c14.2,1.2,22.8,3.7,27.8,6C427,84.2,431.3,87.6,435.9,89.4z M426,107c5.3-6,5.9-15,1.3-19.4
		c-1.8-1.7-4.3-2.6-7.1-2.6c-4.1,0-8.4,2.1-11.5,5.5c-0.5,0.6-0.9,1.2-1.3,1.8c0-1-0.1-2-0.3-3.1c-1.3-8.2-7.1-14.4-13.5-14.4
		c-0.5,0-1.1,0-1.6,0.1c-7,1.2-11.8,9.6-10.6,18.3c0,0.1,0,0.1,0,0.2c0.1,0.6,0.2,1.2,0.4,1.7c-2.5-1.4-5.3-2.2-8-2.2
		c-4.6,0-8.7,2.1-10.7,5.6c-3.4,5.8-0.4,14.3,6.5,18.5c0,0,0.1,0,0.1,0.1c2.7,1.5,5.7,2.3,8.7,2.3c0,0,0,0,0,0
		c1.2,0,2.3-0.1,3.3-0.4c-1.4,3.3-2,6.5-2.3,9c0,0.1-0.8,7.3,3.4,12.1c2.2,2.5,5.3,3.8,8.9,3.8c2.3,0,5-0.5,7.9-1.6
		c0.1,0,0.3-0.1,0.4-0.2c4.3-2.2,5.8-2.4,7.1-2.4c0.5,0,1,0,1.6,0.1c0.3,0,0.7,0,1,0.1c0,0,0.4,0,0.4,0c6.2,0,9.3-2.7,10.8-5
		c3.4-5.1,1.7-11.9,0.8-14.1c0-0.1-0.1-0.1-0.1-0.2c-0.1-0.1-0.1-0.3-0.2-0.5c-0.6-1.5-1.8-4.4-4.6-7.8
		C420.1,111.8,423.5,109.9,426,107z M585.9,152.5c-2,7.6-17.4,57.8-21.2,72c-60-35.9-161-36.1-168.5-36.1
		c-7.6-0.2-108.4,0.2-168.5,36.1c-3.8-14.1-19.2-64.4-21.2-72c-3.4-13.8,4.2-23.4,7.3-29c4.4-8,64.4-75.1,182.1-80h0.7
		c117.7,4.7,177.7,72,182.1,80C581.7,129.1,589.3,138.9,585.9,152.5z M454.2,79.2c0-1.6-1.1-3-2.7-3.5l-1.3-0.3
		c-4.9-1.3-8.2-2.8-9.1-10.8l-0.1-1c-0.1-1.2-0.9-2.3-2-2.9l-0.9-0.4c-13.7-6.5-32.6-8.3-38.1-8.6c0,0-2.9-0.2-4.2-0.2
		c-1,0-4.1,0.2-4.2,0.2c-5.5,0.4-24.3,2.1-38.1,8.6l-0.9,0.4c-1.1,0.5-1.9,1.6-2,2.9l-0.1,1c-0.9,8.1-4,9.5-9,10.8l-1.3,0.3
		c-1.6,0.4-2.7,1.8-2.7,3.5v1.3c0,7.1,0,26,6.9,45.8c8.2,23.8,23.4,41.7,45.2,53.2l4.6,2.3c0.5,0.3,1.1,0.4,1.6,0.4s1.1-0.1,1.6-0.4
		l4.6-2.3c21.7-11.2,36.9-29.1,45.1-53.1c6.9-20,6.9-38.7,6.9-45.8V79.2z M380.8,716.2c0.9-5.2,2.4-13.3,2.8-16.1l-14-13.8l3.6-0.9
		c0.6-0.1,11.3-2.6,14.5-3.4c0.1-0.2,0.2-0.4,0.3-0.6l0.1-0.1c1.9-3.3,7.6-13.9,7.7-14l1.9-3.5l9.1,17.6c0,0,0.6,0.1,0.6,0.1
		l20.9,2.9l-3,3c-0.6,0.6-9.9,10.3-12.4,13c0.4,1.9,1.5,5.5,2.3,8.5c0.8,2.9,1.6,5.7,2,7.3l0.1,0.5c5.7-7.5,11.5-18.4,15.3-33.6
		c-13.1-3.1-16.3-15.6-16.7-22.3c-0.2,0-0.4,0-0.5,0c-4.5-0.7-25.6-0.7-35.9,0.7c-0.4,2.7-0.5,5.6-1.3,7.8
		c-1.6,4.5-4.9,11.4-14.9,16.1v0.2c2.9,15.2,9.8,26.1,17,33.5L380.8,716.2z M397.4,710c-5.5,3.4-12.9,8-13.4,8.3l-2.6,1.7
		c7.9,7.7,15.8,11.3,18.9,11.9c0,0,7.1-3.3,15.1-12.9C410,716.3,398.8,710.7,397.4,710z"/>
	<path fill="#C2C4C3" d="M390.7,641.8c-3.4-1.1-4-4.5-4-7.6c0-5.4,0.4-10.9,0.7-16.3c0.2-2.9,0.9-3.4,3.4-3.4c2,0,11.6,0,13.6,0
		c0.2,0,0.2,0,0.4,0c0.4,0,0.7,0,1.1,0c2.5,0,3.3,0.5,3.4,3.4c0.4,5.4,0.7,10.9,0.7,16.3c0,3.3-0.7,6.5-4,7.6
		C404.2,642.3,392.6,642.3,390.7,641.8z M445.7,677.7c-8.9,42-29.4,62.2-42.8,66.6c-2,0.7-9.8-2.5-11.6-3.4
		c-12-6.2-29-19.4-36.1-45.5c-0.5-2.4-2.5-10.9-2.7-14.1c12.7-4.7,19.9-14.1,20.9-31.2c4.5-1.6,40.8-3.1,50.6-0.9
		C425.9,667.8,434.1,675.7,445.7,677.7z M437,680.4c-13.1-1.5-16.1-18.1-16.7-20.9c-0.4-1.5-0.2-1.8-1.5-2
		c-8.3-0.4-25.8-0.6-40.5,0.6c-1.3,0.2-1.7,0.7-1.7,2c-0.4,5.1-2.2,15.3-15.7,23c-1.6,0.9-1.6,0.4-0.7,4.7
		c0.4,1.8,7.6,36.9,39.9,49.3c1.3,0.2,1.6,0.2,2.5-0.4c29.3-17,34.1-50.8,34.6-53.9C437.5,681.8,438.1,680.6,437,680.4z M450.6,79.2
		v1.3c0,6.9,0,25.2-6.7,44.6c-8,23.1-22.5,40.3-43.4,51.1l-4.6,2.3l-4.6-2.3c-20.9-11-35.5-28.2-43.4-51.1
		c-6.7-19.3-6.7-37.7-6.7-44.6v-1.3l1.3-0.3c5.7-1.5,10.6-3.6,11.7-13.9l0.1-1l0.9-0.4c13.2-6.3,31.5-7.9,36.8-8.3
		c0,0,3-0.2,3.9-0.2c1.1,0,3.8,0.2,3.9,0.2c5.3,0.4,23.7,2,36.8,8.3l0.9,0.4l0.1,1c1.1,10.2,6.2,12.4,11.7,13.9L450.6,79.2z
		 M439.6,86.8c-5.2-1.5-9.7-4-10.5-13.2c-5.1-2.6-14.5-5.8-30.8-7.1c-1.3-0.2-2.1-0.2-2.4-0.2c-0.3,0-1.1,0-2.4,0.2
		c-4.6,0.3-20,1.5-30.9,7.1c-0.8,9.4-5.4,12-10.4,13.2c0,0.2,0,0.3,0,0.5c1.5,38.9,16.3,65.3,43.8,78.6
		C433.3,148,439.4,109.2,439.6,86.8z M396.7,104.2c4.8-0.8,8.1-7.3,7-14.4c-1.2-7.1-6.3-12.3-11.1-11.4c-4.8,0.8-8.8,7.3-7.8,14.4
		C386.1,99.9,391.9,105,396.7,104.2z M385.9,112.2c2.3-4-0.2-10.6-5.6-13.9c-5.5-3.3-11.9-2-14.3,2c-2.3,4-0.2,10.4,5.3,13.8
		C377,117.1,383.8,116.1,385.9,112.2z M411.3,92.8c-4.1,4.8-4.6,11.4-1.5,14.4c3.2,3.2,9.5,2.3,13.6-2.5c4.1-4.6,4.6-11.6,1.5-14.6
		C421.7,87.1,415.4,88.1,411.3,92.8z M413.1,113.5c-12.3-13.3-21.2-3.3-23.4-0.8c-4.8,5.1-6.5,11.3-7,15.8
		c-0.2,1.3-0.7,16.6,15.6,10.6c6.5-3.3,8-2.8,11.4-2.7c11.8,0.2,9.9-11.1,8.6-14.3C417.9,121.1,416.9,117.6,413.1,113.5z"/>
	<path fill="#F7FC32" d="M402.6,693.8c0,2.9-2.3,5.2-5.2,5.2c-2.9,0-5.2-2.3-5.2-5.2c0-2.9,2.3-5.2,5.2-5.2
		C400.3,688.6,402.6,690.9,402.6,693.8z M423.8,685.8c-0.4,0.4-13.2,13.7-13.2,13.9c0.4,2.5,3.7,13.2,4.6,16.9
		c-1.8-0.9-17.6-8.8-17.9-9c0,0-13.9,8.6-14.4,9c0,0,3-16.7,3-17.2l-12.1-12c0.7-0.2,13.5-3.2,15.1-3.5c0.4-0.2,0.7-0.9,1.1-1.6
		c1.9-3.3,7.7-14.1,7.7-14.1l7.6,14.6c0,0.2,0.2,0.4,0.2,0.4c0.2,0.2,0.4,0.2,1.8,0.4L423.8,685.8z M406.4,693.8
		c0-4.9-4-8.9-8.9-8.9s-8.9,4-8.9,8.9s4,8.9,8.9,8.9S406.4,698.8,406.4,693.8z M396.2,194.2c-10.7-0.2-106.8,0.8-168.5,33.6
		c0.7,2.2,1.5,4.3,2.4,6.8c60.9-29,146.8-27.6,165.8-27.9c19,0.4,104.6-1.3,165.5,27.8c0.9-2.5,1.7-4.8,2.3-7
		C502.6,194.9,406.9,194.2,396.2,194.2z"/>
	<path fill="#FFFFFF" d="M544.5,393.5c0,1.5-0.5,3.4-0.9,5.8c-2.7,8.5-7.6,18.1-16,20.9c-5.3,1.8-10.7,3.1-16.2,3.9
		c10.1-8.4,16-20.8,16-33.8c0-24.1-19.6-43.7-43.7-43.9c-24.1,0.1-43.7,19.8-43.7,43.9c0,9.3,2.5,17.8,7.2,24.9
		c-3.5-2.6-5.4-5.8-5.4-5.8c-3.6-6.3-4.7-14.5-4.9-21.4c1.3-25.6,10.7-42.1,23-51.5c6.9-5.3,19.4-9.8,33-9.8
		c12.7,0,26.1,4,36.6,14.9C537.8,350,546.2,365.7,544.5,393.5z M332.3,336.4c-6.9-5.3-19.4-9.8-33-9.8c-12.7,0-26.1,4-36.6,14.9
		c-8.2,8.5-16.5,24.3-14.9,52c0,1.5,0.5,3.4,0.9,5.8c2.7,8.5,7.6,18.1,16,20.9c4.8,1.6,10,2.8,15.2,3.7
		c-9.6-7.8-15.5-20.3-15.5-33.6c0-24.2,19.8-44,44.2-44.1c16.6,0.1,32.1,9.8,39.5,24.8l0.2,0.3c0.1,0.2,0.2,0.5,0.3,0.7l0.2,0.5
		c0.1,0.3,0.2,0.5,0.3,0.8l0.1,0.3c1.9,4.7,3,9.5,3.3,14.5c0,0.7,0.1,1.5,0.1,2.2c0,5.2-0.9,10.2-2.7,15.1l-0.3,0.8
		c-0.3,0.9-0.7,1.9-1.2,3c-1.1,2.2-2.3,4.3-3.6,6.2c2.7-1.8,4.6-4.2,5.6-6.1c3.6-6.3,4.7-14.5,4.9-21.4
		C354.3,362.3,344.7,345.8,332.3,336.4z M303.3,366.3c0,0-0.1-0.1-0.1-0.2c-2-2.2-4.9-3.4-8.2-3.4c-6.2,0-11.2,5.1-11.2,11.2
		c0,0,0,0,0,0.1c0,0,0,0.1,0,0.1c0,1.8,0.5,3.6,1.3,5.1c0.1,0.2,0.2,0.3,0.3,0.5c0.1,0.1,0.1,0.2,0.2,0.3c0.4,0.6,0.8,1.1,1.3,1.6
		c2.1,2,4.9,3.3,8,3.3c6.2,0,11.2-5,11.4-11.1c0-0.1,0-0.1,0-0.2c0-2.8-1-5.3-2.6-7.3C303.5,366.2,303.4,366.2,303.3,366.3z
		 M478.1,366.1c2,2,3.3,4.7,3.3,7.8c0,6.2-5.1,11.2-11.2,11.2c-3.8,0-7.3-1.8-9.2-4.9c-0.3-0.5-0.6-0.9-0.8-1.4
		c-0.5-1-0.8-2.1-1-3.2c-0.1-0.6-0.1-1.1-0.1-1.7c0-1.2,0.2-2.3,0.5-3.3c0.2-0.7,0.5-1.4,0.9-2c0.5-1,1.2-1.8,1.9-2.6
		c0.5-0.5,1.1-1,1.7-1.4c0.9-0.6,1.9-1.1,2.9-1.4c0.7-0.2,1.4-0.4,2.2-0.5c0.4,0,0.8-0.1,1.1-0.1c0.8,0,1.5,0.1,2.3,0.2
		c0.7,0.2,1.5,0.4,2.1,0.7c1,0.4,2,1,2.8,1.8C477.6,365.6,477.9,365.8,478.1,366.1z"/>
	<path fill="#874721" d="M221.7,293.9c-5.8,7.3-28.1,53.3-10.2,41.5c-3.3,5.1-7.6,18-7.1,28.1c0.5,9.6,3.6,15.4,8.3,4.4
		c-0.5,7.1-3.2,27.6,7.4,54.6c-3.4,3.4-10.1,11-13.9,18.1c-4.4-59.3-21-121.5-3.4-154.1C207,291.8,212.5,299.7,221.7,293.9z
		 M349,388.2c0,0.7,0.1,1.4,0.1,2.1c0,4.8-0.9,9.5-2.5,13.8c-0.5,1.2-0.8,2.3-1.4,3.5c-2,4.1-4.4,7.8-7.6,11c0,0-0.1,0.1-0.1,0.1
		c0,0-0.3,0.1-0.7,0.2l0,0c-2.2,0.5-8.9,2.3-10,2.5c-6,1.3-16.3,3.8-29.9,3.8c-1.5,0-2.7,0-4.2,0c-1.1,0-2.4-0.1-3.6-0.2
		c0,0,0,0,0,0c-0.4,0-0.8,0-1.2,0c-0.1,0-0.1-0.1-0.1-0.1c-12-6.3-19.8-19.9-19.8-34.5c0-22.1,18.4-40.4,40.6-40.5
		c15.7,0.1,29.7,9.5,36.2,22.7c0.1,0.1,0.1,0.2,0.2,0.3c0.1,0.3,0.3,0.6,0.4,0.9c0.1,0.3,0.3,0.6,0.4,0.9c0,0.1,0.1,0.2,0.1,0.3
		C347.7,379,348.7,383.5,349,388.2z M333.6,390.2c0-13.6-11.1-24.7-24.7-24.7c-1.8,0-3.7,0.2-5.4,0.6c-0.1,0-0.2,0-0.3,0.1
		c0,0-0.1-0.1-0.1-0.2c-2-2.2-4.9-3.4-8.2-3.4c-6.2,0-11.2,5.1-11.2,11.2c0,0,0,0,0,0.1c0,0,0,0.1,0,0.1c0,1.8,0.5,3.6,1.3,5.1
		c0.1,0.2,0.2,0.3,0.3,0.5c0.1,0.1,0.1,0.2,0.2,0.3c0.2,0.3,0.4,0.6,0.6,0.9c-1.3,2.9-2,6.2-2,9.6c0,12.7,9.6,23.1,21.9,24.5
		c0.9,0.1,1.9,0.2,2.8,0.2c4.8-0.1,9.2-1.5,13-3.8C328.9,406.9,333.6,399.1,333.6,390.2z M160.5,88.6c6.9,12.2,17.2,30.9,42.9,69.7
		c-3.4-7.1-5.6-18.7,4.4-35c-18.3-17.2-47.5-52-52.4-58.6c-5.4-7.1-10.2-8.3-11.8-2.4c-10,36.6-16.1,203.8,46.2,254.6
		c0.2-19,5.1-27.6,8-33.5C106.8,211.4,157.4,93.5,160.5,88.6z M570.6,293.9c5.8,7.4,28.1,53.3,10.2,41.5c3.3,4.9,7.6,18,7.1,28.1
		c-0.5,9.6-3.4,15.6-8.3,4.4c0.5,6.9,3.7,27.6-6.8,54.6c3.4,3.4,9.7,11,13.2,18.1c4.4-59.5,21-121.5,3.4-154.1
		C585.3,291.8,579.9,299.7,570.6,293.9z M649,62.2c-1.6-6-6.3-4.7-11.8,2.4c-4.9,6.5-34.1,41.3-52.4,58.6
		c9.8,16.3,7.8,27.9,4.4,34.8c24-36.1,41.1-70.8,42.1-73.6c3.5,6.1,54.2,127.4-36.4,198.9c2.9,6,7.8,14.5,8,33.5
		C665.1,266,658.9,98.8,649,62.2z M523.8,390.2c0,13.6-6.8,25.6-17.1,32.9c-0.8,0.6-1.4,1.2-2.2,1.7c0,0,0,0-0.1,0
		c-13.1,0.3-43.5-4.9-49.3-6.2c-0.1,0-0.1,0-0.2,0c0,0-0.1,0-0.1,0c0,0,0,0,0,0c-7.2-7.3-11-17.3-11-28.3
		c0-22.1,17.9-40.2,40.1-40.3C506,350.1,523.8,368.2,523.8,390.2z M508.3,390.2c0-13.6-11.1-24.7-24.7-24.7c-1.8,0-3.8,0.2-5.4,0.5
		c-0.2-0.3-0.5-0.5-0.8-0.8c-0.8-0.7-1.8-1.3-2.8-1.8c-0.7-0.3-1.4-0.5-2.1-0.7c-0.7-0.2-1.5-0.2-2.3-0.2c-0.4,0-0.8,0-1.1,0.1
		c-0.8,0.1-1.5,0.2-2.2,0.5c-1.1,0.3-2,0.8-2.9,1.4c-0.6,0.4-1.2,0.9-1.7,1.4c-0.8,0.8-1.4,1.6-1.9,2.6c-0.3,0.6-0.6,1.3-0.9,2
		c-0.3,1.1-0.5,2.2-0.5,3.3c0,0.6,0,1.2,0.1,1.7c0.2,1.1,0.5,2.2,1,3.2c0.2,0.5,0.5,1,0.8,1.4c-1.3,3.1-2,6.3-2,9.8
		c0,13.6,11.1,24.7,24.7,24.7C497.2,414.9,508.3,403.8,508.3,390.2z M446.4,257.8c-10.3-1.3-48.1-1.8-50.2-1.8s-39.9,0.7-50.2,1.8
		c35.7,19.6,40.1,61.5,21.9,41.2c4.5,7.1,23.4,36.5,8.9,29.2c13.4,25.6,7.1,33.4-0.9,22.5c4.7,15.1,4,44.6,2.2,54.4
		c12.7-3.1,25-1.5,36.3,0c-1.6-9.8-2.5-39.2,2.2-54.4c-8,10.9-14.3,3.1-0.9-22.5c-14.3,7.3,4.4-21.9,8.9-29.2
		C406.3,319.1,410.9,277.4,446.4,257.8z"/>
</g>
</svg>
